<?xml version="1.0" encoding="UTF-8" standalone="no"?>
<svg width="51px" height="50px" viewBox="0 0 51 50" version="1.1" xmlns="http://www.w3.org/2000/svg" xmlns:xlink="http://www.w3.org/1999/xlink" xmlns:sketch="http://www.bohemiancoding.com/sketch/ns">
    <!-- Generator: Sketch 3.2.2 (9983) - http://www.bohemiancoding.com/sketch -->
    <title>Oval 1</title>
    <desc>Created with Sketch.</desc>
    <defs></defs>
    <g id="Welcome" stroke="none" stroke-width="1" fill="none" fill-rule="evenodd" sketch:type="MSPage">
        <g id="Desktop-HD-2" sketch:type="MSArtboardGroup" transform="translate(-879.000000, -880.000000)" fill="#000">
            <g id="social" sketch:type="MSLayerGroup" transform="translate(879.000000, 880.000000)">
                <path d="M25.0862069,0 C11.2314767,0 0,11.1928806 0,25 C0,38.8071194 11.2314767,50 25.0862069,50 C38.9409371,50 50.1724138,38.8071194 50.1724138,25 C50.1724138,11.1928806 38.9409371,0 25.0862069,0 Z M25.0862069,3 C12.8940443,3 3.01034483,12.8497349 3.01034483,25 C3.01034483,37.1502651 12.8940443,47 25.0862069,47 C37.2783695,47 47.162069,37.1502651 47.162069,25 C47.162069,12.8497349 37.2783695,3 25.0862069,3 Z M11.2433326,26.4994198 L11.037931,28.2899843 L11.2433326,30.0498224 C11.2509604,30.1238678 11.2973856,30.1755611 11.3560483,30.1755611 C11.4128451,30.1755611 11.4591058,30.1243715 11.4681054,30.0505779 L11.711646,28.2899843 L11.4681054,26.4989161 C11.459435,26.4251226 11.4125707,26.3731145 11.3560483,26.3731145 C11.2974405,26.3731145 11.2509055,26.4251226 11.2433326,26.4994198 Z M12.8946119,25.3946571 C12.8946119,25.3952867 12.6183652,28.2897324 12.6183652,28.2897324 L12.8946119,31.1207736 C12.9024043,31.1967079 12.9516831,31.2514864 13.011553,31.2514864 C13.0702705,31.2514864 13.1184518,31.1979672 13.12811,31.1215921 L13.4423311,28.2897324 L13.1284942,25.3946571 C13.118836,25.3177153 13.0707644,25.2645739 13.011553,25.2645739 C12.9520124,25.2645739 12.9027335,25.3194783 12.8946119,25.3946571 Z M14.4465104,24.761745 L14.1988542,28.2908658 L14.4465104,31.7053294 C14.4531504,31.8110456 14.5244894,31.8908837 14.6115231,31.8908837 C14.6975689,31.8908837 14.7686336,31.8109197 14.7762614,31.7053294 L15.0579408,28.2908658 L14.7762614,24.7609894 C14.7686885,24.6552103 14.6976787,24.5753722 14.6115231,24.5753722 C14.5244894,24.5753722 14.4535345,24.6552732 14.4465104,24.761745 Z M16.0128962,25.0172521 L15.779398,28.2909287 L16.0128962,31.7335372 C16.019646,31.8549944 16.1002591,31.9468586 16.20178,31.9468586 C16.3018193,31.9468586 16.3827617,31.8549314 16.3902797,31.733852 L16.6556061,28.2909287 L16.3902797,25.0157409 C16.3831458,24.8947875 16.3020937,24.8036159 16.20178,24.8036159 C16.1002042,24.8036159 16.0192618,24.8955431 16.0128962,25.0172521 Z M17.5799405,22.9658916 L17.3598321,28.292251 L17.5799405,31.7345446 C17.5856476,31.8690983 17.6934245,31.9751293 17.8067987,31.9751293 C17.9195692,31.9751293 18.0340958,31.8685946 18.0340958,31.7337261 L18.2682525,28.292251 L18.01231,22.9658916 C18.0055053,22.8306454 17.905027,22.7241106 17.7922565,22.7241106 C17.678992,22.7241106 17.5853184,22.8305824 17.5799405,22.9658916 Z M19.1457227,21.7485496 C19.1457227,21.7489903 18.940376,28.2933213 18.940376,28.2933213 L19.1461617,31.7138925 C19.1513201,31.8633686 19.2552556,31.9816775 19.3827329,31.9816775 C19.5090579,31.9816775 19.6132678,31.8633686 19.6193042,31.7126332 L19.8514304,28.2933213 L19.6193042,21.7485496 C19.6129934,21.5974994 19.509003,21.4795682 19.3826781,21.4795682 C19.2552556,21.4795682 19.1513201,21.5977513 19.1457227,21.7485496 Z M20.6978407,20.9640207 L20.5208101,28.2940139 L20.6980602,31.6585473 C20.7023954,31.8388756 20.8546769,31.9814257 21.0096472,31.9814257 C21.1643432,31.9814257 21.3213988,31.8388756 21.3213988,31.657477 L21.4933808,28.2942028 L21.280516,20.9639577 C21.2755772,20.7820553 21.1368502,20.6391905 20.9824835,20.6391905 C20.8271839,20.6391905 20.7020662,20.7816146 20.6978407,20.9640207 Z M22.2500685,21.4133933 L22.1014089,28.2954621 L22.2500685,31.6071059 C22.2536354,31.8179717 22.4036669,31.9846998 22.5867339,31.9846998 C22.7692521,31.9846998 22.9228505,31.8182235 22.9228505,31.6048392 L23.0859425,28.2958399 L22.917308,21.4128896 C22.9129179,21.1998201 22.7655205,21.032966 22.5830023,21.032966 C22.4002097,21.032966 22.2536354,21.1997571 22.2500685,21.4133933 Z M23.8377463,19.3647403 L23.6818979,28.2972251 L23.8381853,31.5388532 C23.8409291,31.7759119 24.0300324,31.9709107 24.2375193,31.9709107 C24.4445671,31.9709107 24.6367984,31.7757859 24.6367984,31.5353272 L24.7875433,28.2972251 L24.6085371,19.3640477 C24.605519,19.1245334 24.4257995,18.9290938 24.2187516,18.9290938 C24.0112099,18.9290938 23.8408742,19.1245334 23.8377463,19.3647403 Z M34.3416517,24.3767843 C34.0666122,20.8031482 31.4547802,18 28.2689433,18 C27.4893173,18 26.7329589,18.1759838 26.061878,18.4738655 C25.8011064,18.589593 25.7326209,18.7089094 25.7326209,18.9399865 L25.7326209,31.5248122 C25.7326209,31.7674747 25.8959873,31.9696515 26.1022669,31.9933888 C26.1110471,31.9945221 35.6180168,32 35.6796428,32 C37.5880719,32 39.1344828,30.2245469 39.1344828,28.0346031 C39.1344828,25.8446593 37.5865902,24.0688914 35.6782709,24.0688914 C35.204854,24.0688914 34.7530035,24.1788262 34.3416517,24.3767843 Z" id="Oval-1" sketch:type="MSShapeGroup"></path>
            </g>
        </g>
    </g>
</svg>