<?xml version="1.0" encoding="UTF-8" standalone="no"?>
<svg width="51px" height="50px" viewBox="0 0 51 50" version="1.1" xmlns="http://www.w3.org/2000/svg" xmlns:xlink="http://www.w3.org/1999/xlink" xmlns:sketch="http://www.bohemiancoding.com/sketch/ns">
    <!-- Generator: Sketch 3.2.2 (9983) - http://www.bohemiancoding.com/sketch -->
    <title>Oval 1</title>
    <desc>Created with Sketch.</desc>
    <defs></defs>
    <g id="Welcome" stroke="none" stroke-width="1" fill="none" fill-rule="evenodd" sketch:type="MSPage">
        <g id="Desktop-HD-2" sketch:type="MSArtboardGroup" transform="translate(-959.000000, -880.000000)" fill="#FFFFFF">
            <g id="social" sketch:type="MSLayerGroup" transform="translate(879.000000, 880.000000)">
                <path d="M105.362069,50 C119.216799,50 130.448276,38.8071194 130.448276,25 C130.448276,11.1928806 119.216799,0 105.362069,0 C91.5073388,0 80.2758621,11.1928806 80.2758621,25 C80.2758621,38.8071194 91.5073388,50 105.362069,50 Z M105.362069,47 C117.554232,47 127.437931,37.1502651 127.437931,25 C127.437931,12.8497349 117.554232,3 105.362069,3 C93.1699064,3 83.2862069,12.8497349 83.2862069,25 C83.2862069,37.1502651 93.1699064,47 105.362069,47 Z M107.182846,36 L107.182846,24.998712 L110.448292,24.998712 L110.881034,21.2076072 L107.182846,21.2076072 L107.188394,19.3101227 C107.188394,18.3213442 107.289413,17.7915341 108.816494,17.7915341 L110.857918,17.7915341 L110.857918,14 L107.592009,14 C103.669127,14 102.288374,15.8390937 102.288374,18.9318709 L102.288374,21.2080366 L99.8431034,21.2080366 L99.8431034,24.9991413 L102.288374,24.9991413 L102.288374,36 L107.182846,36 Z" id="Oval-1" sketch:type="MSShapeGroup"></path>
            </g>
        </g>
    </g>
</svg>