<?xml version="1.0" encoding="UTF-8" standalone="no"?>
<svg width="51px" height="50px" viewBox="0 0 51 50" version="1.1" xmlns="http://www.w3.org/2000/svg" xmlns:xlink="http://www.w3.org/1999/xlink" xmlns:sketch="http://www.bohemiancoding.com/sketch/ns">
    <!-- Generator: Sketch 3.2.2 (9983) - http://www.bohemiancoding.com/sketch -->
    <title>Oval 1</title>
    <desc>Created with Sketch.</desc>
    <defs></defs>
    <g id="Welcome" stroke="none" stroke-width="1" fill="none" fill-rule="evenodd" sketch:type="MSPage">
        <g id="Desktop-HD-2" sketch:type="MSArtboardGroup" transform="translate(-1104.000000, -889.000000)" fill="#000">
            <g id="social" sketch:type="MSLayerGroup" transform="translate(864.000000, 889.000000)">
                <path d="M265.913793,50 C279.768523,50 291,38.8071194 291,25 C291,11.1928806 279.768523,0 265.913793,0 C252.059063,0 240.827586,11.1928806 240.827586,25 C240.827586,38.8071194 252.059063,50 265.913793,50 Z M265.913793,47 C278.105956,47 287.989655,37.1502651 287.989655,25 C287.989655,12.8497349 278.105956,3 265.913793,3 C253.721631,3 243.837931,12.8497349 243.837931,25 C243.837931,37.1502651 253.721631,47 265.913793,47 Z M265.594953,20.5542975 L265.642806,21.3761011 L264.845254,21.2754721 C261.942167,20.8897275 259.405954,19.5815504 257.252565,17.3844837 L256.199797,16.2943361 L255.92863,17.0993681 C255.354393,18.8939188 255.721267,20.7890985 256.917594,22.0637326 C257.555635,22.7681357 257.412076,22.8687647 256.311455,22.4494772 C255.92863,22.3153051 255.593658,22.2146761 255.561756,22.2649907 C255.450099,22.3823912 255.832924,23.9085978 256.135993,24.5123719 C256.55072,25.350947 257.396124,26.1727505 258.321284,26.6591241 L259.102884,27.0448686 L258.177725,27.0616401 C257.284467,27.0616401 257.252565,27.0784116 257.348271,27.4306131 C257.667292,28.5207608 258.927423,29.6779944 260.331114,30.1811394 L261.320077,30.533341 L260.458722,31.070029 C259.18264,31.8415181 257.683243,32.2775772 256.183846,32.3111202 C255.46605,32.3278916 254.875862,32.3949776 254.875862,32.4452922 C254.875862,32.6130071 256.821887,33.5522113 257.95441,33.9211843 C261.351979,35.0113319 265.387589,34.5417298 268.418285,32.6800932 C270.571674,31.3551445 272.725062,28.7220188 273.729977,26.1727505 C274.272312,24.8142589 274.814647,22.3320767 274.814647,21.1413 C274.814647,20.369811 274.8625,20.269182 275.755758,19.3467494 C276.282141,18.8100613 276.776623,18.2230588 276.872329,18.0553437 C277.03184,17.7366852 277.015889,17.7366852 276.202386,18.0218007 C274.846549,18.5249458 274.655137,18.4578598 275.32508,17.7031422 C275.819562,17.1664541 276.40975,16.1937071 276.40975,15.9085915 C276.40975,15.858277 276.170484,15.9421346 275.899317,16.093078 C275.612198,16.2607931 274.974157,16.5123656 274.495626,16.6633091 L273.634271,16.9484246 L272.85267,16.394965 C272.421993,16.093078 271.815854,15.757648 271.496833,15.657019 C270.683331,15.422218 269.43915,15.455761 268.705403,15.724105 C266.711525,16.4788226 265.451394,18.4243168 265.594953,20.5542975 C265.594953,20.5542975 265.451394,18.4243168 265.594953,20.5542975 Z" id="Oval-1" sketch:type="MSShapeGroup"></path>
            </g>
        </g>
    </g>
</svg>