<?xml version="1.0" encoding="UTF-8" standalone="no"?>
<svg width="51px" height="50px" viewBox="0 0 51 50" version="1.1" xmlns="http://www.w3.org/2000/svg" xmlns:xlink="http://www.w3.org/1999/xlink" xmlns:sketch="http://www.bohemiancoding.com/sketch/ns">
    <!-- Generator: Sketch 3.2.2 (9983) - http://www.bohemiancoding.com/sketch -->
    <title>Oval 1</title>
    <desc>Created with Sketch.</desc>
    <defs></defs>
    <g id="Welcome" stroke="none" stroke-width="1" fill="none" fill-rule="evenodd" sketch:type="MSPage">
        <g id="Desktop-HD-2" sketch:type="MSArtboardGroup" transform="translate(-1024.000000, -889.000000)" fill="#FFFFFF">
            <g id="social" sketch:type="MSLayerGroup" transform="translate(864.000000, 889.000000)">
                <path d="M210.724138,25 C210.724138,11.1928806 199.492661,0 185.637931,0 C171.783201,0 160.551724,11.1928806 160.551724,25 C160.551724,38.8071194 171.783201,50 185.637931,50 C199.492661,50 210.724138,38.8071194 210.724138,25 Z M207.713793,25 C207.713793,12.8497349 197.830094,3 185.637931,3 C173.445768,3 163.562069,12.8497349 163.562069,25 C163.562069,37.1502651 173.445768,47 185.637931,47 C197.830094,47 207.713793,37.1502651 207.713793,25 Z M197.446838,30.7654774 C197.14731,32.0627028 196.082539,33.0191862 194.801333,33.1618614 C191.766469,33.4998058 188.694831,33.5014844 185.636387,33.4998058 C182.578223,33.5014844 179.506305,33.4998058 176.471721,33.1618614 C175.190235,33.0191862 174.126025,32.0627028 173.826778,30.7654774 C173.400645,28.9179732 173.400645,26.9020564 173.400645,25.0002798 C173.400645,23.0982233 173.405698,21.0820268 173.83155,19.2345226 C174.131078,17.9372972 175.195288,16.980534 176.476494,16.8381386 C179.511357,16.5001942 182.582996,16.4985156 185.64144,16.5001942 C188.699604,16.4985156 191.771522,16.5001942 194.806106,16.8381386 C196.087592,16.980534 197.152363,17.9372972 197.451611,19.2345226 C197.877744,21.0820268 197.875217,23.0982233 197.875217,25.0002798 C197.875217,26.9020564 197.872691,28.9179732 197.446838,30.7654774 Z M183.435127,20.5 L190.208403,24.3971143 L183.435127,28.2942286 L183.435127,20.5 Z" id="Oval-1" sketch:type="MSShapeGroup"></path>
            </g>
        </g>
    </g>
</svg>